<svg width="110" height="28" viewBox="0 0 110 28" fill="none" xmlns="http://www.w3.org/2000/svg">
<path fill-rule="evenodd" clip-rule="evenodd" d="M11.3481 11.3494C13.227 11.3494 14.4152 10.3206 14.4152 8.79147V8.73575C14.4152 7.0677 13.227 6.20576 11.3206 6.20576H8.77844V11.3494H11.3481ZM3.41797 1.67383H11.7351C16.598 1.67383 19.748 4.20402 19.748 8.48558V8.54109C19.748 13.1566 16.2389 15.5755 11.4586 15.5755H8.77844V21.1363H3.41797V1.67383ZM25.945 13.6005L28.1279 8.09553L30.283 13.6005H25.945ZM33.1888 21.173L36.5468 15.4936L30.7528 1.70068H25.5857L17.3795 21.3022H22.9885L24.37 17.7991H31.8581L33.1888 21.173ZM40.9411 1.68721L44.3902 9.88565L49.2353 1.68784L55.1682 1.69563L40.9555 25.7441L35.0221 25.7364L40.8909 15.8064L35.001 1.69647L40.9411 1.68721Z" fill="white"/>
<path fill-rule="evenodd" clip-rule="evenodd" d="M96.1955 16.7506C99.1243 16.7506 101.086 14.3594 101.086 11.5512V11.4958C101.086 8.65959 99.0968 6.24073 96.1401 6.24073C93.1838 6.24073 91.2217 8.63188 91.2217 11.44V11.4958C91.2217 14.3037 93.2391 16.7506 96.1955 16.7506ZM85.751 11.4958C85.751 5.90704 90.2271 1.375 96.1955 1.375C102.164 1.375 106.585 5.85142 106.585 11.44V11.4958C106.585 17.0843 102.109 21.6162 96.1401 21.6162C90.1721 21.6162 85.751 17.1399 85.751 11.5512V11.4958ZM59.6084 1.44482L56.6051 6.5242C57.1186 6.34075 57.6813 6.23917 58.2865 6.23917C61.2428 6.23917 63.2325 8.65803 63.2325 11.4942V11.5496C63.2325 14.3579 61.2707 16.749 58.3417 16.749C55.5522 16.749 53.5996 14.5703 53.388 11.9654L49.9922 17.7087C51.8501 20.0888 54.8039 21.6147 58.2865 21.6147C64.2549 21.6147 68.7309 17.0827 68.7309 11.4942V11.4385C68.7309 6.25338 64.9244 2.02837 59.6084 1.44482ZM68.7543 6.4912H74.5289V21.2273H79.8895V6.4912H85.692V1.7644H68.7543V6.4912Z" fill="white"/>
</svg>
